# xmcd
#
# Track frame offsets: 
#        150
#        12978
#        22062
#        37659
#        45351
#        59933
#        77622
#        92500
#        100188
#        110747
#        125500
#        138437
#        143930
#        161073
#        165256
#        183338
#        191695
#        196073
#        215724
#
# Disc length: 3240 seconds
#
# Revision: 6
# Processed by: cddbd v1.5.2PL0 Copyright (c) Steve Scherf et al.
# Submitted via: ExactAudioCopyFreeDBPlugin 1.0
#
DISCID=050ca613
DTITLE=Monty Python - Monty Python's Flying Circus (live)
DYEAR=1970
DGENRE=Comedy
TTITLE0=Flying Sheep
TTITLE1=A Man With Three Buttocks
TTITLE2=Crunchy Frog
TTITLE3=Nudge Nudge Wink Wink
TTITLE4=The Mouse Problem
TTITLE5=Buying A Bed
TTITLE6=Interesting People
TTITLE7=Barber Shop Sketch
TTITLE8=Lumberjack Song
TTITLE9=Interview
TTITLE10=Arthur Two Sheds
TTITLE11=Children's Stories
TTITLE12=Visitors
TTITLE13=Albatross
TTITLE14=Mr Hilter
TTITLE15=The North Minehead By-Election
TTITLE16=Me, Doctor
TTITLE17=Dead Parrot Sketch
TTITLE18=Self-Defence
EXTD=
EXTT0=
EXTT1=
EXTT2=
EXTT3=
EXTT4=
EXTT5=
EXTT6=
EXTT7=
EXTT8=
EXTT9=
EXTT10=
EXTT11=
EXTT12=
EXTT13=
EXTT14=
EXTT15=
EXTT16=
EXTT17=
EXTT18=
PLAYORDER=
